<?xml version="1.0" standalone="no"?>
<!DOCTYPE svg PUBLIC "-//W3C//DTD SVG 20010904//EN"
 "http://www.w3.org/TR/2001/REC-SVG-20010904/DTD/svg10.dtd">
<svg version="1.0" xmlns="http://www.w3.org/2000/svg"
 width="176.000000pt" height="176.000000pt" viewBox="0 0 176.000000 176.000000"
 preserveAspectRatio="xMidYMid meet">
<metadata>
Created by potrace 1.14, written by Peter Selinger 2001-2017
</metadata>
<g transform="translate(0.000000,176.000000) scale(0.100000,-0.100000)"
fill="#000000" stroke="none">
<path d="M885 1753 c-11 -2 -47 -9 -80 -15 -77 -15 -209 -69 -285 -119 -70
-45 -194 -165 -239 -231 -100 -148 -154 -323 -154 -498 0 -115 2 -135 22 -220
58 -253 236 -473 472 -585 125 -59 199 -76 344 -81 193 -6 315 24 468 114 70
42 217 172 217 192 0 5 -11 17 -24 28 -27 21 -125 105 -160 137 -12 11 -46 40
-76 65 -29 25 -58 50 -64 55 -10 9 -55 48 -221 191 -27 23 -63 54 -80 68 l-29
25 134 132 c74 72 213 207 308 300 94 93 172 172 172 177 0 4 -17 24 -37 43
-158 149 -356 226 -579 226 -49 0 -98 -1 -109 -4z"/>
</g>
</svg>
